<?xml version="1.0" standalone="no"?>
<!DOCTYPE svg PUBLIC "-//W3C//DTD SVG 20010904//EN"
 "http://www.w3.org/TR/2001/REC-SVG-20010904/DTD/svg10.dtd">
<svg version="1.0" xmlns="http://www.w3.org/2000/svg"
 width="1920.000000pt" height="1080.000000pt" viewBox="0 0 1920.000000 1080.000000"
 preserveAspectRatio="xMidYMid meet">

<g transform="translate(0.000000,1080.000000) scale(0.100000,-0.100000)"
fill="#000000" stroke="none">
<path d="M18710 8062 c-99 -49 -99 -206 0 -257 126 -65 267 72 201 195 -39 74
-125 101 -201 62z"/>
<path d="M17315 7527 c-106 -36 -183 -101 -232 -197 -24 -49 -28 -66 -28 -150
0 -85 3 -101 29 -154 37 -76 101 -140 174 -174 50 -24 70 -27 157 -27 95 0
103 2 163 34 75 41 125 94 161 170 22 48 26 69 26 151 0 81 -4 103 -26 150
-33 71 -104 141 -176 175 -68 33 -185 43 -248 22z"/>
<path d="M19191 4664 c0 -11 3 -14 6 -6 3 7 2 16 -1 19 -3 4 -6 -2 -5 -13z"/>
<path d="M19181 4614 c0 -11 3 -14 6 -6 3 7 2 16 -1 19 -3 4 -6 -2 -5 -13z"/>
<path d="M19193 4345 c0 -44 2 -61 4 -37 2 23 2 59 0 80 -2 20 -4 1 -4 -43z"/>
<path d="M19183 4190 c0 -36 2 -50 4 -32 2 17 2 47 0 65 -2 17 -4 3 -4 -33z"/>
<path d="M19173 4060 c0 -30 2 -43 4 -27 2 15 2 39 0 55 -2 15 -4 2 -4 -28z"/>
<path d="M19161 3960 c-7 -174 -98 -775 -157 -1039 -188 -844 -524 -1502
-1028 -2019 -316 -324 -660 -563 -1033 -718 -51 -21 -90 -40 -89 -42 6 -6 171
65 297 128 81 41 117 55 110 43 -9 -17 -144 -185 -217 -270 l-37 -43 168 0
168 0 66 54 c36 30 103 92 147 138 56 57 103 94 148 117 156 81 416 316 586
531 242 305 446 690 583 1100 136 407 226 903 214 1180 -4 100 -1 157 18 285
33 222 67 531 62 563 -3 22 -4 21 -6 -8z"/>
<path d="M19195 3300 c0 -206 1 -291 2 -187 2 103 2 271 0 375 -1 103 -2 18
-2 -188z"/>
<path d="M17528 2907 c-100 -38 -175 -104 -219 -192 -21 -43 -24 -64 -24 -150
0 -87 3 -107 26 -155 32 -66 97 -133 160 -165 179 -91 403 -16 488 165 23 48
26 68 26 155 0 91 -3 105 -29 158 -35 68 -93 125 -168 163 -43 22 -69 28 -138
31 -55 2 -98 -2 -122 -10z"/>
<path d="M18484 2618 l-19 -23 23 19 c21 18 27 26 19 26 -2 0 -12 -10 -23 -22z"/>
<path d="M18385 2508 l-80 -83 83 80 c76 74 87 85 79 85 -1 0 -38 -37 -82 -82z"/>
<path d="M18269 2403 c-13 -16 -12 -17 4 -4 16 13 21 21 13 21 -2 0 -10 -8
-17 -17z"/>
<path d="M18229 2373 c-13 -16 -12 -17 4 -4 16 13 21 21 13 21 -2 0 -10 -8
-17 -17z"/>
<path d="M17500 2175 c0 -14 2 -25 4 -25 2 0 6 11 8 25 3 14 1 25 -3 25 -5 0
-9 -11 -9 -25z"/>
<path d="M17788 2193 c7 -3 16 -2 19 1 4 3 -2 6 -13 5 -11 0 -14 -3 -6 -6z"/>
<path d="M17608 2183 c23 -2 59 -2 80 0 20 2 1 4 -43 4 -44 0 -61 -2 -37 -4z"/>
<path d="M17513 2045 c0 -27 2 -38 4 -22 2 15 2 37 0 50 -2 12 -4 0 -4 -28z"/>
<path d="M17513 1840 c0 -25 2 -35 4 -22 2 12 2 32 0 45 -2 12 -4 2 -4 -23z"/>
<path d="M17502 1710 c0 -14 2 -19 5 -12 2 6 2 18 0 25 -3 6 -5 1 -5 -13z"/>
<path d="M17491 1634 c0 -11 3 -14 6 -6 3 7 2 16 -1 19 -3 4 -6 -2 -5 -13z"/>
<path d="M17481 1574 c0 -11 3 -14 6 -6 3 7 2 16 -1 19 -3 4 -6 -2 -5 -13z"/>
<path d="M17471 1524 c0 -11 3 -14 6 -6 3 7 2 16 -1 19 -3 4 -6 -2 -5 -13z"/>
<path d="M17296 1023 c-6 -14 -5 -15 5 -6 7 7 10 15 7 18 -3 3 -9 -2 -12 -12z"/>
<path d="M16081 914 c-150 -54 -242 -183 -243 -339 0 -150 80 -274 218 -337
75 -34 209 -32 286 4 79 37 142 98 181 177 29 58 32 75 32 151 0 74 -4 93 -31
150 -37 78 -99 141 -174 178 -69 34 -198 42 -269 16z"/>
<path d="M17149 773 c-13 -16 -12 -17 4 -4 16 13 21 21 13 21 -2 0 -10 -8 -17
-17z"/>
<path d="M17099 703 c-13 -16 -12 -17 4 -4 16 13 21 21 13 21 -2 0 -10 -8 -17
-17z"/>
<path d="M17064 658 l-19 -23 23 19 c21 18 27 26 19 26 -2 0 -12 -10 -23 -22z"/>
<path d="M17019 603 l-24 -28 28 24 c15 14 27 26 27 28 0 8 -8 1 -31 -24z"/>
<path d="M16905 478 l-70 -73 73 70 c67 64 77 75 69 75 -1 0 -34 -33 -72 -72z"/>
<path d="M16784 368 l-19 -23 23 19 c21 18 27 26 19 26 -2 0 -12 -10 -23 -22z"/>
<path d="M16729 323 c-13 -16 -12 -17 4 -4 9 7 17 15 17 17 0 8 -8 3 -21 -13z"/>
<path d="M16679 283 c-13 -16 -12 -17 4 -4 16 13 21 21 13 21 -2 0 -10 -8 -17
-17z"/>
<path d="M16730 105 c-52 -18 -90 -34 -84 -34 12 -1 185 56 192 64 10 10 -14
3 -108 -30z"/>
<path d="M16585 60 c-13 -5 -14 -9 -5 -9 8 0 24 4 35 9 13 5 14 9 5 9 -8 0
-24 -4 -35 -9z"/>
<path d="M16538 43 c7 -3 16 -2 19 1 4 3 -2 6 -13 5 -11 0 -14 -3 -6 -6z"/>
<path d="M16498 33 c7 -3 16 -2 19 1 4 3 -2 6 -13 5 -11 0 -14 -3 -6 -6z"/>
<path d="M16448 23 c6 -2 18 -2 25 0 6 3 1 5 -13 5 -14 0 -19 -2 -12 -5z"/>
<path d="M16408 13 c7 -3 16 -2 19 1 4 3 -2 6 -13 5 -11 0 -14 -3 -6 -6z"/>
<path d="M16353 3 c9 -2 23 -2 30 0 6 3 -1 5 -18 5 -16 0 -22 -2 -12 -5z"/>
</g>
</svg>
